# xmcd
#
# Track frame offsets:
#	150
#	18845
#	29367
#	45730
#	58792
#	65325
#	82132
#	91707
#	102287
#	114525
#
# Disc length: 1787
#
# Revision: 1
# Processed by: cddbd v1.5.1PL0 Copyright (c) Steve Scherf et al.
# Submitted via: dBpowerAMP V4.0
# Normalized: r0:TRMNUM
#
DISCID=7a06f90a
DTITLE=Wilson Brothers  - Lonesome Old Home
DYEAR=1980
DGENRE=Bluegrass
TTITLE0=Lonesome Old Home
TTITLE1=Let Me Rest At The Top Of The Mountain
TTITLE2=Time Is Winding Up
TTITLE3=How Much I Owe
TTITLE4=They Won't Believe
TTITLE5=Pale Horse and His Rider
TTITLE6=Heavenly Highway
TTITLE7=Everybody Will Be Happy Over There
TTITLE8=Got Him On My Mind
TTITLE9=The Stanleys Will Sing Again
EXTD=bluegrass
EXTT0=
EXTT1=
EXTT2=
EXTT3=
EXTT4=
EXTT5=
EXTT6=
EXTT7=
EXTT8=
EXTT9=
PLAYORDER=
